Coordinates
version=1
nRows=13
nColumns=36
inDegrees=yes

Units are S.I. units (second, meters, Newtons, ...)
If the header above contains a line with 'inDegrees', this indicates whether rotational values are in degrees (yes) or radians (no).

endheader
time	pelvis_tilt	pelvis_list	pelvis_rotation	pelvis_tx	pelvis_ty	pelvis_tz	hip_flexion_r	hip_adduction_r	hip_rotation_r	knee_angle_r	knee_angle_r_beta	ankle_angle_r	subtalar_angle_r	mtp_angle_r	hip_flexion_l	hip_adduction_l	hip_rotation_l	knee_angle_l	knee_angle_l_beta	ankle_angle_l	subtalar_angle_l	mtp_angle_l	lumbar_extension	lumbar_bending	lumbar_rotation	arm_flex_r	arm_add_r	arm_rot_r	elbow_flex_r	pro_sup_r	arm_flex_l	arm_add_l	arm_rot_l	elbow_flex_l	pro_sup_l
      3.83333330	     -1.92754850	     -0.96542428	      5.02495760	      1.01969525	      1.25340860	     -0.61491235	      5.29985539	     -1.14372676	    -13.66000958	      5.92505074	      0.10341164	    -16.96374417	      0.59888682	     -7.49999987	      3.68245513	     -5.74956353	     -8.32010602	      1.61199639	      0.02813464	    -21.70588047	      2.55004311	     -7.49999987	      2.98288078	      4.69592763	     -1.52850050	    130.29298498	   -113.29253196	    100.83681277	     96.96246679	     66.16916413	    -23.59270367	    -75.79240227	    -62.29793730	     94.33338841	     72.11354350
      3.85000000	     -1.51248286	     -1.06323063	      4.64707849	      1.01584578	      1.26572535	     -0.61917198	      4.49528702	     -0.96828895	    -13.18063889	      6.77306191	      0.11821223	    -16.73687675	     -0.13274650	     -7.49999987	      2.97718569	     -5.29160468	     -7.89287093	      2.19606215	      0.03832852	    -21.86195564	      3.11975320	     -7.49999987	      2.85990838	      5.54941813	     -1.04733859	    139.04377612	   -116.35827302	    113.37206191	     90.67786082	     71.58298426	    -23.48492390	    -68.79827519	    -58.02503779	     91.28247866	     80.62881210
      3.86666670	     -1.02022809	     -1.24424026	      4.69444998	      1.01265112	      1.28073199	     -0.61100023	      3.81398783	     -0.71158892	    -12.64963480	      7.95655011	      0.13886800	    -16.48420024	     -1.04863182	     -7.49999987	      2.50474321	     -5.15145573	     -7.19741654	      3.38230310	      0.05903233	    -21.81706515	      3.15199650	     -7.49999987	      2.47446562	      6.11902715	     -1.77075782	    139.47745097	   -121.93244492	    116.15587648	     80.83651361	     71.36458864	    -22.48812762	    -62.96643505	    -55.24829987	     86.27146146	     78.52740092
      3.88333330	     -0.53569337	     -1.36973091	      4.87658261	      1.00924498	      1.29804071	     -0.61557688	      3.08989176	     -0.66724786	    -12.43163629	      9.20719414	      0.16069585	    -16.10631245	     -1.69492742	     -7.49999987	      2.31412876	     -4.93800860	     -6.49279798	      4.66602939	      0.08143758	    -21.82616574	      3.03183362	     -7.49999987	      1.88546929	      7.10229790	     -2.53965656	    143.58820099	   -126.66585822	    120.00644746	     67.94941853	     77.26058029	    -21.47255262	    -56.37310526	    -52.03071894	     81.27390445	     79.40325596
      3.90000000	     -0.23753259	     -1.05915539	      4.44487963	      1.00909376	      1.30831375	     -0.61353706	      2.47663690	     -1.02108781	    -12.03696841	     10.22474960	      0.17845555	    -16.76133589	     -2.72162507	     -7.49999987	      2.18068906	     -4.40759288	     -6.58735018	      5.79618887	      0.10116258	    -22.01447309	      2.63443424	     -7.49999987	      1.52035714	      7.04276631	     -2.02728874	    147.31442403	   -130.56033264	    122.54484406	     60.50378769	     78.19533761	    -21.66539824	    -53.06637336	    -48.22853498	     77.95800800	     79.39911213
      3.91666670	      0.26211022	     -0.81936565	      4.09434526	      1.01272133	      1.31016109	     -0.60962174	      1.50290499	     -1.32579906	    -12.46017025	     11.10878411	      0.19388486	    -17.48715343	     -3.30443331	     -7.49999987	      1.83149035	     -4.07406663	     -6.93883428	      6.81941858	      0.11902131	    -22.52541457	      2.24512748	     -7.49999987	      1.10433467	      7.33359212	     -1.76542472	    145.05902952	   -136.45301157	    122.85697043	     57.24998801	     78.38234877	    -25.87086291	    -48.22666015	    -47.28259061	     75.11877042	     79.34852658
      3.93333330	      0.51667270	     -0.53555653	      3.61261496	      1.01204020	      1.31462896	     -0.60822633	      0.76175420	     -1.69330876	    -12.58723199	     11.61378508	      0.20269879	    -18.54642789	     -4.27387508	     -7.49999987	      1.70774312	     -3.67011433	     -7.75638605	      7.34045867	      0.12811517	    -23.31992317	      1.75686257	     -7.49999987	      0.89641408	      6.93178502	     -4.43749293	    148.44908495	   -139.06193686	    125.90226063	     52.18944931	     83.85337460	    -34.11131765	    -43.17736376	    -49.41159767	     74.41641783	     74.67067999
      3.95000000	      0.85353303	     -0.46086411	      3.14887414	      1.01170370	      1.31543244	     -0.60849625	     -0.25613745	     -1.98964559	    -12.65192960	     11.75312804	      0.20513078	    -18.77807710	     -4.50433130	     -7.49999987	      1.42290975	     -3.50358637	     -8.61420008	      7.34742239	      0.12823671	    -24.10050705	      1.26893646	     -7.49999987	      0.74764711	      7.32140241	     -4.85597602	    148.97331190	   -142.53368949	    127.36807505	     47.04163926	     83.77536601	    -36.18501468	    -39.25882823	    -45.74378948	     70.55792531	     74.39831057
      3.96666670	      0.77084568	     -0.50448114	      2.85028809	      1.00451714	      1.31455038	     -0.60431133	     -0.64004393	     -2.10798812	    -12.87937171	     11.58060234	      0.20211964	    -18.77620086	     -4.51363492	     -7.49999987	      1.80103641	     -3.51570322	     -9.44678150	      7.46071351	      0.13021402	    -24.84023979	      0.73682800	     -7.49999987	      0.85799391	      7.21686626	     -4.67370621	    147.05952433	   -146.11313437	    129.70513000	     43.73592599	     84.04914373	    -38.86276111	    -36.37874315	    -42.78897188	     69.55509308	     74.04479145
      3.98333330	      0.82854694	     -0.45039460	      2.51723117	      0.99781204	      1.31386685	     -0.60123421	     -1.40972527	     -2.29062734	    -12.85931315	     11.00136462	      0.19201003	    -18.81308600	     -3.87070717	     -7.49999987	      2.05649165	     -3.60338845	    -10.18236133	      7.53941148	      0.13158755	    -25.95339859	      0.37014989	     -7.49999987	      0.96363717	      7.38300460	     -4.75272171	    148.73072354	   -149.29502297	    132.25399147	     39.75927857	     84.27600757	    -37.54729644	    -32.60109161	    -39.61619995	     65.21355166	     73.61431532
      4.00000000	      0.62843455	     -0.40702241	      2.07385422	      0.99739012	      1.29937619	     -0.59991210	     -1.78487943	     -2.59313305	    -12.89398919	     10.78308323	      0.18820031	    -19.22224268	     -3.64301579	     -7.49999987	      2.42259666	     -3.75057027	    -10.39792471	      7.55198722	      0.13180704	    -26.25638850	      0.20334178	     -7.49999987	      1.27398745	      7.35493823	     -4.20505220	    147.55748296	   -151.55137776	    134.84647019	     35.57977071	     84.78831390	    -37.24423964	    -31.06483135	    -37.28637569	     61.86951787	     73.14921407
      4.01666670	      0.86794109	     -0.62822638	      1.43270522	      0.98307161	      1.27896908	     -0.59446450	     -1.27513215	     -2.73461977	    -12.69402232	     12.34970741	      0.21554306	    -18.88318782	     -4.63460196	     -7.49999987	      2.85470609	     -4.33899390	    -10.49289204	      8.62994409	      0.15062094	    -25.59400583	     -0.02992444	     -7.49999987	      0.68757952	      7.73333258	     -3.44016691	    148.12735686	   -153.93703917	    139.31963849	     33.92115686	     83.51457355	    -35.21849472	    -29.94554476	    -33.55438571	     56.94282640	     72.32485641
      4.03333330	      1.17381447	     -0.85605682	      0.82199453	      0.98617629	      1.27327843	     -0.58942789	     -1.60355778	     -2.69096965	    -12.70107232	     12.78870241	      0.22320496	    -18.72021448	     -5.23540232	     -7.49999987	      2.66186294	     -4.93204603	    -10.75630714	      9.09378336	      0.15871646	    -25.13480652	     -0.09039518	     -7.49999987	      0.27528303	      7.90460165	     -2.31164753	    146.34924269	   -157.30278688	    141.96352431	     34.24015731	     82.86679494	    -34.16865564	    -29.59836113	    -30.83819697	     52.89082286	     72.31014227
